<svg xmlns="http://www.w3.org/2000/svg" xml:space="preserve" viewBox="0 0 270.933 270.933">
  <circle cx="-135.467" cy="135.467" r="135.467" style="opacity:1;fill:#f66d71;fill-opacity:1;stroke-width:.264583" transform="scale(-1 1)"/>
  <path d="m21.66 63.236-3.97-6.278s-4.494 8.981-9 8.981-6.652-15.505-7.045-18.255c-.394-2.753-.586-8.535.989-9.37 2.73-1.447 12.667-6.785 23.998-13.217a875.884 875.884 0 0 0 21.99-12.96s5.554-3.612 11.782-2.845c8.55 1.055 14.216 6.086 14.216 6.086zm227.614 0 3.969-6.278s4.495 8.981 9 8.981c4.507 0 6.653-15.505 7.045-18.255.394-2.753.587-8.535-.988-9.37-2.73-1.447-12.668-6.785-24-13.217-11.33-6.433-21.988-12.96-21.988-12.96s-5.555-3.612-11.782-2.845c-8.55 1.055-14.217 6.086-14.217 6.086z" style="opacity:1;fill:#f66d71;fill-opacity:1;stroke-width:.264583"/>
  <path d="M96.712 92.56c0 11.466-9.295 20.76-20.76 20.76-11.467 0-20.762-9.294-20.762-20.76 0-11.467 9.295-20.762 20.761-20.762s20.761 9.295 20.761 20.762zm77.509 0c0 11.466 9.295 20.76 20.761 20.76s20.761-9.294 20.761-20.76c0-11.467-9.295-20.762-20.76-20.762-11.467 0-20.762 9.295-20.762 20.762z" style="opacity:1;fill:#fff;fill-opacity:1;stroke-width:.271097"/>
  <path d="M122.243 166.845c0 11.619-9.418 21.037-21.037 21.037-11.618 0-21.037-9.418-21.037-21.037 0-11.618 9.419-21.037 21.037-21.037 11.619 0 21.037 9.419 21.037 21.037zm13.224-29.411v78.457c-29.536 0-73.486-14.976-73.486-47.713 0-28.115 23.523-30.744 73.486-30.744zm13.223 29.411c0 11.619 9.418 21.037 21.037 21.037 11.618 0 21.037-9.418 21.037-21.037 0-11.618-9.419-21.037-21.037-21.037-11.619 0-21.037 9.419-21.037 21.037zm-13.223-29.411v78.457c29.536 0 73.485-14.976 73.485-47.713 0-28.115-23.523-30.744-73.485-30.744z" style="opacity:1;fill:#fff;fill-rule:evenodd;stroke-width:.236269"/>
</svg>
